<svg data-v-0dd9719b="" version="1.0" xmlns="http://www.w3.org/2000/svg"
   xmlns:xlink="http://www.w3.org/1999/xlink" width="180mm" height="81.6mm"
   viewBox="0 0 180.000000 81.600000" preserveAspectRatio="xMidYMid meet"
   color-interpolation-filters="sRGB" style="margin: auto;">
   <g data-v-0dd9719b="" fill="#dc2626" class="bordersvg b-d1"
      transform="translate(-0.5,3)">
      <polyline stroke="#dc2626" stroke-width="3" fill-opacity="0" fill="#FFFFFF"
         points="85.08499908447266,20 85.08499908447266,10 170.1699981689453,0 170.1699981689453,74.93000411987305 85.08499908447266,64.93000411987305 85.08499908447266,54.93000411987305"></polyline>
      <g transform="translate(0,20)">
         <g>
            <rect data-gra="graph-name-bg" stroke-width="2" class="i-icon-bg" x="0" y="0"
               width="170.1699981689453" height="34.930002212524414" fill-opacity="0"></rect> <!----> <!---->
         </g>
         <g transform="translate(10,3)">
            <g data-gra="path-name" fill-rule="" class="tp-name">
               <g transform="scale(1)">
                  <g>
                     <path
                        d="M28.98-28.57L17.5-10.8 15.21 0 5.44 0 7.92-11.56 3.51-28.57 14.31-28.57 17.37-17.28 24.12-28.57 28.98-28.57ZM41.63-28.57L37.66-10.21Q37.44-9.22 37.3-8.5 37.17-7.79 37.17-7.15L37.17-7.15Q37.17-5.58 38.27-4.63 39.38-3.69 41.53-3.69L41.53-3.69Q43.11-3.69 44.12-4.23 45.13-4.77 45.79-5.67 46.44-6.57 46.82-7.74 47.2-8.91 47.47-10.21L47.47-10.21 51.3-28.57 55.39-28.57 51.48-10.13Q51.03-7.96 50.17-6.08 49.32-4.18 47.72-2.75 46.13-1.3 43.6-0.47 41.08 0.36 37.35 0.36L37.35 0.36Q32.17 0.36 29.7-1.33 27.22-3.01 27.22-6.52L27.22-6.52Q27.22-8.1 27.63-10.53 28.03-12.96 28.66-15.79L28.66-15.79 31.41-28.57 41.63-28.57ZM84.15-28.57L77.98 0 67.45 0 62.46-20.65 58.05 0 54 0 60.08-28.57 70.83-28.57 75.56-7.65 80.01-28.57 84.15-28.57ZM82.04 0L82.84-4.09 97.65-25.15 86.31-25.15 86.98-28.57 109.22-28.57 108.81-24.75 94.14-3.42 105.97-3.42 105.34 0 82.04 0ZM139-28.57L132.84 0 123.12 0 125.82-12.73 120.29-12.73 117.59 0 107.87 0 113.94-28.57 123.71-28.57 121.05-16.16 126.54-16.16 129.19-28.57 139-28.57ZM153.68-28.57L147.56 0 137.84 0 143.91-28.57 153.68-28.57Z"
                        transform="translate(-3.509999990463257, 28.56999969482422)"></path>
                  </g> <!----> <!----> <!----> <!----> <!----> <!----> <!---->
               </g>
            </g> <!---->
         </g>
      </g>
   </g>
   <defs v-gra="od"></defs>
</svg>